<svg width="71" height="24" viewBox="0 0 71 24" fill="none" xmlns="http://www.w3.org/2000/svg">
<g clip-path="url(#clip0_127_16)">
<path d="M11.0383 1.53937C5.23931 1.53937 0.538086 6.24046 0.538086 12.0394C0.538086 17.8387 5.23931 22.5394 11.0383 22.5394C16.8379 22.5394 21.5386 17.8387 21.5386 12.0394C21.5386 6.24084 16.8379 1.53987 11.0382 1.53987L11.0383 1.53937ZM15.8536 16.6835C15.6655 16.9919 15.2618 17.0897 14.9533 16.9004C12.488 15.3945 9.38444 15.0535 5.72944 15.8885C5.37723 15.9688 5.02615 15.7481 4.9459 15.3958C4.86528 15.0434 5.08508 14.6923 5.43817 14.6121C9.43798 13.6983 12.8689 14.0917 15.6367 15.7832C15.9451 15.9725 16.0429 16.375 15.8536 16.6835ZM17.1388 13.8244C16.9018 14.2096 16.3978 14.3312 16.0128 14.0943C13.1904 12.3594 8.88804 11.857 5.54964 12.8704C5.11668 13.0011 4.6594 12.7571 4.52799 12.3249C4.39759 11.892 4.64172 11.4356 5.07392 11.3039C8.88729 10.1469 13.628 10.7073 16.8692 12.6991C17.2542 12.9361 17.3758 13.4401 17.1388 13.8245V13.8244ZM17.2491 10.8473C13.865 8.8372 8.28155 8.65238 5.05048 9.63303C4.53163 9.79039 3.98294 9.49748 3.82571 8.97864C3.66847 8.45954 3.96112 7.91123 4.48035 7.75349C8.18939 6.62753 14.3552 6.84507 18.2515 9.15806C18.7192 9.43504 18.8721 10.0378 18.595 10.5038C18.3192 10.9705 17.7148 11.1244 17.2497 10.8473H17.2491ZM29.1056 11.2324C27.2926 10.8001 26.9703 10.4967 26.9703 9.8591C26.9703 9.25674 27.5371 8.85137 28.3809 8.85137C29.1984 8.85137 30.0084 9.15919 30.8585 9.79289C30.8836 9.81208 30.9162 9.81973 30.9476 9.81471C30.9802 9.80995 31.0077 9.79252 31.0266 9.76631L31.9118 8.51847C31.9481 8.46706 31.9381 8.39622 31.8892 8.35697C30.8773 7.54535 29.7388 7.15076 28.4072 7.15076C26.45 7.15076 25.082 8.3255 25.082 10.0063C25.082 11.8087 26.2619 12.4469 28.3007 12.9396C30.0348 13.3392 30.3282 13.674 30.3282 14.2723C30.3282 14.9356 29.7363 15.3481 28.7834 15.3481C27.7251 15.3481 26.8612 14.9908 25.8958 14.1557C25.8719 14.1344 25.8393 14.1256 25.8092 14.1269C25.7766 14.1294 25.7478 14.1444 25.7277 14.1682L24.7347 15.3494C24.6933 15.3995 24.6983 15.4722 24.746 15.5149C25.8694 16.518 27.2512 17.0471 28.7433 17.0471C30.8523 17.0471 32.2152 15.8948 32.2152 14.1106C32.219 12.605 31.3175 11.7712 29.1094 11.2341L29.1056 11.2324ZM36.9874 9.44445C36.0733 9.44445 35.3235 9.80455 34.7041 10.5424V9.71189C34.7041 9.64632 34.6515 9.5929 34.5863 9.5929H32.9625C32.8973 9.5929 32.8447 9.64632 32.8447 9.71189V18.9404C32.8447 19.0056 32.8973 19.0595 32.9625 19.0595H34.5863C34.6515 19.0595 34.7041 19.0056 34.7041 18.9404V16.0277C35.3235 16.7211 36.0733 17.0609 36.9874 17.0609C38.6864 17.0609 40.4067 15.7531 40.4067 13.253C40.4092 10.7525 38.6889 9.44432 36.9887 9.44432L36.9874 9.44445ZM38.5184 13.253C38.5184 14.5256 37.7347 15.4146 36.6113 15.4146C35.5016 15.4146 34.664 14.4855 34.664 13.253C34.664 12.0205 35.5016 11.0916 36.6113 11.0916C37.7159 11.0915 38.5184 12.0003 38.5184 13.2529V13.253ZM44.814 9.44445C42.626 9.44445 40.912 11.1291 40.912 13.2802C40.912 15.4083 42.6147 17.0747 44.7877 17.0747C46.9832 17.0747 48.7022 15.3958 48.7022 13.253C48.7022 11.1176 46.9945 9.4447 44.814 9.4447V9.44445ZM44.814 15.4271C43.6504 15.4271 42.7727 14.4917 42.7727 13.2524C42.7727 12.0075 43.6203 11.1041 44.7877 11.1041C45.9588 11.1041 46.8415 12.0391 46.8415 13.2796C46.8415 14.5243 45.9889 15.4271 44.814 15.4271ZM53.3741 9.5929H51.5873V7.76653C51.5873 7.70108 51.5347 7.64767 51.4695 7.64767H49.8457C49.7805 7.64767 49.7266 7.70108 49.7266 7.76653V9.5929H48.9467C48.8815 9.5929 48.8289 9.64632 48.8289 9.71189V11.1071C48.8289 11.1725 48.8815 11.2261 48.9467 11.2261H49.7266V14.8365C49.7266 16.2948 50.4526 17.0346 51.8858 17.0346C52.4676 17.0346 52.9503 16.9142 53.4054 16.6559C53.4431 16.6358 53.4656 16.5957 53.4656 16.5531V15.224C53.4656 15.1839 53.4443 15.145 53.4092 15.1237C53.3741 15.1011 53.3302 15.0998 53.2938 15.1187C52.9816 15.2754 52.6795 15.3481 52.3409 15.3481C51.8206 15.3481 51.5873 15.1111 51.5873 14.582V11.2267H53.3741C53.4393 11.2267 53.492 11.1733 53.492 11.1077V9.71264C53.4945 9.64707 53.4418 9.59365 53.3754 9.59365L53.3741 9.5929ZM59.5983 9.60005V9.37573C59.5983 8.71583 59.8515 8.42155 60.4183 8.42155C60.7568 8.42155 61.0289 8.48875 61.3336 8.59032C61.3712 8.6021 61.4101 8.59621 61.4402 8.57377C61.4715 8.55132 61.4891 8.51534 61.4891 8.47722V7.10926C61.4891 7.05697 61.4565 7.01071 61.4051 6.99528C61.0841 6.89961 60.6728 6.80144 60.0559 6.80144C58.5576 6.80144 57.7639 7.64578 57.7639 9.24232V9.58588H56.984C56.9188 9.58588 56.8648 9.63929 56.8648 9.70475V11.1071C56.8648 11.1725 56.9188 11.2261 56.984 11.2261H57.7639V16.7938C57.7639 16.8603 57.8178 16.9129 57.883 16.9129H59.5055C59.5719 16.9129 59.6246 16.8603 59.6246 16.7938V11.2264H61.1405L63.4627 16.7938C63.1993 17.3781 62.9398 17.4947 62.5862 17.4947C62.3003 17.4947 61.9981 17.4095 61.6909 17.2402C61.6621 17.2251 61.627 17.2226 61.5969 17.2314C61.5656 17.2427 61.5392 17.2653 61.5267 17.2954L60.9762 18.5028C60.9499 18.5605 60.9725 18.627 61.0277 18.657C61.6019 18.968 62.1198 19.1009 62.7605 19.1009C63.9592 19.1009 64.6225 18.5417 65.2055 17.0396L68.0217 9.76255C68.0367 9.72594 68.0317 9.68456 68.0091 9.65208C67.9878 9.61986 67.9515 9.60042 67.9126 9.60042H66.2224C66.171 9.60042 66.1259 9.63265 66.1096 9.68017L64.378 14.6246L62.4821 9.67691C62.4646 9.63089 62.4207 9.60042 62.3718 9.60042H59.5983V9.60005ZM55.9897 9.5929H54.3659C54.3007 9.5929 54.2468 9.64632 54.2468 9.71189V16.7938C54.2468 16.8603 54.3007 16.9129 54.3659 16.9129H55.9897C56.0549 16.9129 56.1088 16.8603 56.1088 16.7938V9.71239C56.1088 9.64682 56.0561 9.5934 55.9897 9.5934V9.5929ZM55.1872 6.3681C54.5439 6.3681 54.0223 6.8887 54.0223 7.53181C54.0223 8.17529 54.5439 8.69652 55.1872 8.69652C55.8304 8.69652 56.3508 8.17529 56.3508 7.53181C56.3508 6.88883 55.8292 6.3681 55.1872 6.3681ZM69.4085 11.87C68.7665 11.87 68.2662 11.3541 68.2662 10.7275C68.2662 10.101 68.7728 9.57911 69.4147 9.57911C70.0567 9.57911 70.557 10.0949 70.557 10.721C70.557 11.3476 70.0504 11.87 69.4085 11.87ZM69.4147 9.69271C68.8292 9.69271 68.3866 10.1579 68.3866 10.7275C68.3866 11.2969 68.8267 11.7558 69.4085 11.7558C69.994 11.7558 70.4366 11.291 70.4366 10.721C70.4366 10.1516 69.9965 9.69271 69.4147 9.69271ZM69.668 10.8385L69.9915 11.2909H69.7182L69.4273 10.8758H69.1777V11.2909H68.9495V10.0917H69.4837C69.7633 10.0917 69.9464 10.2343 69.9464 10.4742C69.9476 10.6708 69.8335 10.791 69.6693 10.8385H69.668ZM69.4749 10.2974H69.1777V10.6767H69.4749C69.6229 10.6767 69.7119 10.6041 69.7119 10.4869C69.7119 10.3635 69.6229 10.2974 69.4749 10.2974Z" fill="#4C4C4D"/>
</g>
<defs>
<clipPath id="clip0_127_16">
<rect width="70" height="24" fill="white" transform="translate(0.5)"/>
</clipPath>
</defs>
</svg>