<svg width="50" height="24" viewBox="0 0 50 24" fill="none" xmlns="http://www.w3.org/2000/svg">
<g clip-path="url(#clip0_127_20)">
<path fill-rule="evenodd" clip-rule="evenodd" d="M40.1876 10.2999C40.3747 10.6227 40.4359 10.99 40.4561 11.4029L40.4827 11.9532V15.8016L40.5098 16.3525C40.5641 17.2523 41.2277 17.9175 42.1343 17.9741L42.6824 18.0013V11.9532L42.7095 11.4029C42.732 10.9946 42.7927 10.6204 42.9827 10.2952C43.1763 9.96177 43.4542 9.68509 43.7885 9.49299C44.1229 9.30089 44.5019 9.20014 44.8875 9.20084C45.2731 9.20154 45.6517 9.30368 45.9854 9.49699C46.319 9.69031 46.5959 9.96799 46.7883 10.3022C46.9754 10.625 47.0337 10.9992 47.0563 11.4029L47.0834 11.9515V15.8016L47.1105 16.3525C47.1671 17.2569 47.8255 17.9221 48.735 17.9741L49.283 18.0013V11.4029C49.283 10.2361 48.8197 9.11708 47.9948 8.29189C47.1699 7.46669 46.0511 7.00287 44.8843 7.00241C44.2598 7.00175 43.6424 7.13437 43.0733 7.3914C42.5041 7.64843 41.9964 8.02397 41.584 8.49291C41.1714 8.02415 40.6636 7.64871 40.0945 7.3916C39.5254 7.13449 38.9081 7.00162 38.2836 7.00183C37.37 7.00183 36.5223 7.27902 35.8201 7.75776C35.3916 7.2796 34.4329 7.00183 33.8826 7.00183V18.0013L34.4329 17.9741C35.3535 17.9135 36.0187 17.2661 36.0545 16.3525L36.084 15.8016V11.9532L36.1111 11.4029C36.1342 10.9877 36.192 10.6227 36.3796 10.2976C36.5734 9.96428 36.8512 9.68767 37.1853 9.49534C37.5194 9.30301 37.8981 9.20168 38.2836 9.20148C38.6694 9.20157 39.0484 9.30309 39.3826 9.49588C39.7168 9.68866 39.9944 9.96593 40.1876 10.2999ZM2.53364 17.9747L3.08398 18.0013H11.3334L11.3063 17.4526C11.2318 16.5483 10.5913 15.8876 9.6841 15.8287L9.13375 15.8016H4.18468L10.7831 9.20091L10.7559 8.65287C10.7132 7.73928 10.0456 7.07921 9.13375 7.02897L8.5834 7.00414L0.333984 7.00183L0.361126 7.55218C0.433312 8.44786 1.08299 9.12237 1.98271 9.17434L2.53364 9.20148H7.48271L0.884331 15.8022L0.911473 16.3525C0.965757 17.2592 1.62005 17.9158 2.53364 17.9741V17.9747ZM31.7234 8.61187C32.2342 9.12255 32.6393 9.72886 32.9158 10.3962C33.1922 11.0635 33.3345 11.7787 33.3345 12.501C33.3345 13.2233 33.1922 13.9385 32.9158 14.6058C32.6393 15.2731 32.2342 15.8794 31.7234 16.3901C30.6914 17.4212 29.2922 18.0004 27.8334 18.0004C26.3746 18.0004 24.9754 17.4212 23.9434 16.3901C21.7958 14.2424 21.7958 10.7595 23.9434 8.61187C24.4538 8.10135 25.0596 7.69636 25.7265 7.42001C26.3933 7.14366 27.1081 7.00137 27.8299 7.00125C28.5529 7.00075 29.269 7.14279 29.937 7.41926C30.6051 7.69572 31.2121 8.10118 31.7234 8.61245V8.61187ZM30.167 10.1694C30.7856 10.7884 31.1331 11.6278 31.1331 12.503C31.1331 13.3782 30.7856 14.2175 30.167 14.8366C29.548 15.4552 28.7086 15.8027 27.8334 15.8027C26.9582 15.8027 26.1188 15.4552 25.4998 14.8366C24.8812 14.2175 24.5337 13.3782 24.5337 12.503C24.5337 11.6278 24.8812 10.7884 25.4998 10.1694C26.1188 9.55074 26.9582 9.20325 27.8334 9.20325C28.7086 9.20325 29.548 9.55074 30.167 10.1694ZM16.2871 7.00125C17.009 7.00144 17.7238 7.14383 18.3906 7.42028C19.0575 7.69673 19.6633 8.10183 20.1736 8.61245C22.3219 10.7595 22.3219 14.243 20.1736 16.3901C19.1416 17.4212 17.7425 18.0004 16.2836 18.0004C14.8248 18.0004 13.4256 17.4212 12.3937 16.3901C10.246 14.2424 10.246 10.7595 12.3937 8.61187C12.904 8.10135 13.5099 7.69636 14.1767 7.42001C14.8436 7.14366 15.5583 7.00137 16.2802 7.00125H16.2871ZM18.6173 10.1682C19.2361 10.7873 19.5837 11.6268 19.5837 12.5021C19.5837 13.3774 19.2361 14.2169 18.6173 14.836C17.9982 15.4547 17.1588 15.8021 16.2836 15.8021C15.4085 15.8021 14.5691 15.4547 13.95 14.836C13.3314 14.217 12.9839 13.3776 12.9839 12.5024C12.9839 11.6272 13.3314 10.7879 13.95 10.1688C14.5691 9.55017 15.4085 9.20267 16.2836 9.20267C17.1588 9.20267 17.9982 9.55017 18.6173 10.1688V10.1682Z" fill="#4C4C4D"/>
</g>
<defs>
<clipPath id="clip0_127_20">
<rect width="49" height="24" fill="white" transform="translate(0.333984)"/>
</clipPath>
</defs>
</svg>